<svg width="36" height="36" viewBox="0 0 36 36" fill="none" xmlns="http://www.w3.org/2000/svg">
<path d="M15.2893 20.0199C12.8473 17.578 11.1907 14.4621 10.5321 11.072C9.8736 7.682 10.2431 4.1724 11.5933 0.993896C8.9851 2.1038 6.6892 3.8369 4.907 6.0409C3.1247 8.245 1.91049 10.8528 1.37089 13.6354C0.831395 16.4181 0.982895 19.2907 1.8123 22.0011C2.6416 24.7116 4.1235 27.1771 6.1278 29.1814C8.1321 31.1857 10.5976 32.6675 13.3081 33.4969C16.0185 34.3263 18.8911 34.4778 21.6738 33.9382C24.4564 33.3987 27.0642 32.1845 29.2683 30.4022C31.4723 28.62 33.2053 26.324 34.3153 23.7159C31.1367 25.0661 27.6272 25.4356 24.2372 24.777C20.8471 24.1185 17.7312 22.4619 15.2893 20.0199Z" fill="#D0E3ED"/>
<path d="M16.0314 19.2779C11.3288 14.5179 10.0352 7.42829 12.6056 1.27389C13.006 0.316291 11.781 -0.222708 11.0656 0.0880919C6.72148 1.96929 3.27168 5.45549 1.43628 9.81909C-0.399117 14.1827 -0.478317 19.0866 1.21518 23.5073C2.88398 27.8011 6.13758 31.4285 10.2984 33.4473C12.5288 34.5385 14.9574 35.166 17.4372 35.2918C19.9171 35.4176 22.3967 35.0392 24.7261 34.1794C27.0555 33.3196 29.1864 31.9963 30.9898 30.2895C32.7932 28.5827 34.2317 26.5279 35.2184 24.2493C35.5264 23.5367 34.9874 22.3089 34.0326 22.7093C27.8726 25.2797 20.79 23.9861 16.0286 19.2835C15.0654 18.3329 13.58 19.8169 14.5432 20.7689C19.7862 25.9489 27.7662 27.5841 34.5912 24.7351L33.4054 23.1951C31.6358 27.2845 28.3136 30.6263 24.1094 32.1817C20.3729 33.5625 16.264 33.5505 12.5356 32.1481C4.81038 29.2459 0.517983 20.5911 2.66418 12.6783C3.98158 7.81889 7.51798 3.90169 12.1212 1.91089L10.5812 0.725092C7.73218 7.54869 9.36878 15.5301 14.5474 20.7731C15.498 21.7251 16.982 20.2397 16.0314 19.2779Z" fill="white"/>
</svg>
