<svg width="70" height="64" viewBox="0 0 70 64" fill="none" xmlns="http://www.w3.org/2000/svg">
<g clip-path="url(#clip0_37_30)">
<path d="M32.6074 31.3926C30.1654 28.9507 28.5088 25.8348 27.8502 22.4447C27.1917 19.0547 27.5612 15.5451 28.9114 12.3666C26.3032 13.4765 24.0073 15.2096 22.2251 17.4136C20.4428 19.6177 19.2286 22.2255 18.689 25.0081C18.1495 27.7908 18.301 30.6634 19.1304 33.3738C19.9597 36.0843 21.4416 38.5498 23.4459 40.5541C25.4502 42.5584 27.9157 44.0402 30.6262 44.8696C33.3366 45.699 36.2092 45.8505 38.9919 45.3109C41.7745 44.7714 44.3823 43.5572 46.5864 41.7749C48.7904 39.9927 50.5234 37.6967 51.6334 35.0886C48.4548 36.4388 44.9453 36.8083 41.5553 36.1497C38.1652 35.4912 35.0493 33.8346 32.6074 31.3926Z" fill="#D0E3ED"/>
<path d="M33.3495 30.6506C28.6469 25.8906 27.3533 18.801 29.9237 12.6466C30.3241 11.689 29.0991 11.15 28.3837 11.4608C24.0396 13.342 20.5898 16.8282 18.7544 21.1918C16.919 25.5554 16.8398 30.4593 18.5333 34.88C20.2021 39.1738 23.4557 42.8012 27.6165 44.82C29.8469 45.9112 32.2755 46.5387 34.7553 46.6645C37.2352 46.7903 39.7148 46.4119 42.0442 45.5521C44.3736 44.6923 46.5045 43.369 48.3079 41.6622C50.1113 39.9554 51.5498 37.9006 52.5365 35.622C52.8445 34.9094 52.3055 33.6816 51.3507 34.082C45.1907 36.6524 38.1081 35.3588 33.3467 30.6562C32.3835 29.7056 30.8981 31.1896 31.8613 32.1416C37.1043 37.3216 45.0843 38.9568 51.9093 36.1078L50.7235 34.5678C48.9539 38.6572 45.6317 41.999 41.4275 43.5544C37.691 44.9352 33.5821 44.9232 29.8537 43.5208C22.1285 40.6186 17.8361 31.9638 19.9823 24.051C21.2997 19.1916 24.8361 15.2744 29.4393 13.2836L27.8993 12.0978C25.0503 18.9214 26.6869 26.9028 31.8655 32.1458C32.8161 33.0978 34.3001 31.6124 33.3495 30.6506Z" fill="white"/>
</g>
<defs>
<clipPath id="clip0_37_30">
<rect width="70" height="70" fill="white" transform="translate(0 -6)"/>
</clipPath>
</defs>
</svg>
