<svg width="70" height="65" viewBox="0 0 70 65" fill="none" xmlns="http://www.w3.org/2000/svg">
<g clip-path="url(#clip0_37_2)">
<path d="M35.0001 41.872C41.5568 41.872 46.8721 36.5567 46.8721 30C46.8721 23.4433 41.5568 18.128 35.0001 18.128C28.4433 18.128 23.1281 23.4433 23.1281 30C23.1281 36.5567 28.4433 41.872 35.0001 41.872Z" fill="#F8B62D"/>
<path d="M45.822 30C45.7856 34.4702 42.9842 38.6366 38.7366 40.1626C36.6191 40.9208 34.3195 41.0091 32.1501 40.4155C29.9806 39.8219 28.0464 38.5752 26.6098 36.8446C23.737 33.3684 23.4066 28.285 25.7166 24.4322C28.0266 20.5794 32.683 18.4752 37.1126 19.381C39.5584 19.891 41.756 21.2225 43.3404 23.1542C44.9247 25.086 45.8004 27.5017 45.822 30C45.8332 31.351 47.9332 31.3538 47.922 30C47.8989 27.3468 47.0698 24.7634 45.5445 22.5923C44.0193 20.4213 41.8701 18.7652 39.382 17.8438C34.3308 15.9832 28.3892 17.631 25.0082 21.8114C21.6272 25.9918 21.1176 31.9824 23.9022 36.6276C26.7022 41.3022 32.242 43.7144 37.5774 42.663C43.5624 41.48 47.88 36.0424 47.922 30C47.9332 28.649 45.8332 28.6476 45.822 30Z" fill="white"/>
<path d="M36.0501 13.3946V8.9146C36.0501 7.5636 33.9501 7.5608 33.9501 8.9146V13.3946C33.9501 14.7456 36.0501 14.7484 36.0501 13.3946Z" fill="white"/>
<path d="M27.6039 15.0886L25.3639 11.212C24.6877 10.0416 22.8733 11.0986 23.5439 12.2718L25.7839 16.1484C26.4601 17.3188 28.2745 16.2618 27.6039 15.0886Z" fill="white"/>
<path d="M21.1484 20.7908L17.2718 18.5508C16.0986 17.8732 15.0402 19.6876 16.212 20.3708L20.0886 22.6108C21.2618 23.2884 22.3202 21.474 21.1484 20.7908Z" fill="white"/>
<path d="M18.3947 28.95H13.9147C12.5637 28.95 12.5609 31.05 13.9147 31.05H18.3947C19.7457 31.05 19.7485 28.95 18.3947 28.95Z" fill="white"/>
<path d="M20.0886 37.3962L16.212 39.6362C15.0416 40.3124 16.0986 42.1268 17.2718 41.4562L21.1484 39.2162C22.3188 38.54 21.2618 36.7256 20.0886 37.3962Z" fill="white"/>
<path d="M25.7908 43.8516L23.5508 47.7282C22.8732 48.9014 24.6876 49.9598 25.3708 48.788L27.6108 44.9114C28.2884 43.7382 26.474 42.6798 25.7908 43.8516Z" fill="white"/>
<path d="M33.9501 46.6054V51.0854C33.9501 52.4364 36.0501 52.4392 36.0501 51.0854V46.6054C36.0501 45.2544 33.9501 45.2516 33.9501 46.6054Z" fill="white"/>
<path d="M42.3963 44.9114L44.6363 48.788C45.3125 49.9584 47.1269 48.9014 46.4563 47.7282L44.2163 43.8516C43.5401 42.6812 41.7257 43.7382 42.3963 44.9114Z" fill="white"/>
<path d="M48.8517 39.2092L52.7283 41.4492C53.9015 42.1268 54.9599 40.3124 53.7881 39.6292L49.9115 37.3892C48.7383 36.7116 47.6799 38.526 48.8517 39.2092Z" fill="white"/>
<path d="M51.6055 31.05H56.0855C57.4365 31.05 57.4393 28.95 56.0855 28.95H51.6055C50.2545 28.95 50.2517 31.05 51.6055 31.05Z" fill="white"/>
<path d="M49.9114 22.6038L53.788 20.3638C54.9584 19.6876 53.9014 17.8732 52.7282 18.5438L48.8516 20.7838C47.6812 21.46 48.7382 23.2744 49.9114 22.6038Z" fill="white"/>
<path d="M44.2092 16.1484L46.4492 12.2718C47.1268 11.0986 45.3124 10.0402 44.6292 11.212L42.3892 15.0886C41.7116 16.2618 43.526 17.3202 44.2092 16.1484Z" fill="white"/>
</g>
<defs>
<clipPath id="clip0_37_2">
<rect width="70" height="70" fill="white" transform="translate(0 -5)"/>
</clipPath>
</defs>
</svg>
