<svg width="46" height="46" viewBox="0 0 46 46" fill="none" xmlns="http://www.w3.org/2000/svg">
<path d="M23.0001 34.8721C29.5568 34.8721 34.8721 29.5568 34.8721 23.0001C34.8721 16.4434 29.5568 11.1281 23.0001 11.1281C16.4433 11.1281 11.1281 16.4434 11.1281 23.0001C11.1281 29.5568 16.4433 34.8721 23.0001 34.8721Z" fill="#F8B62D"/>
<path d="M33.822 23.0001C33.7856 27.4703 30.9842 31.6367 26.7366 33.1627C24.6191 33.9209 22.3195 34.0092 20.1501 33.4156C17.9806 32.822 16.0464 31.5753 14.6098 29.8447C11.737 26.3685 11.4066 21.2851 13.7166 17.4323C16.0266 13.5795 20.683 11.4753 25.1126 12.3811C27.5584 12.8911 29.756 14.2226 31.3404 16.1543C32.9247 18.0861 33.8004 20.5018 33.822 23.0001C33.8332 24.3511 35.9332 24.3539 35.922 23.0001C35.8989 20.3469 35.0698 17.7635 33.5445 15.5924C32.0193 13.4214 29.8701 11.7653 27.382 10.8439C22.3308 8.98326 16.3892 10.6311 13.0082 14.8115C9.62719 18.9919 9.11759 24.9825 11.9022 29.6277C14.7022 34.3023 20.242 36.7145 25.5774 35.6631C31.5624 34.4801 35.88 29.0425 35.922 23.0001C35.9332 21.6491 33.8332 21.6477 33.822 23.0001Z" fill="white"/>
<path d="M24.0501 6.39463V1.91463C24.0501 0.56363 21.9501 0.56083 21.9501 1.91463V6.39463C21.9501 7.74563 24.0501 7.74843 24.0501 6.39463Z" fill="white"/>
<path d="M15.6039 8.08866L13.3639 4.21206C12.6877 3.04166 10.8733 4.09866 11.5439 5.27186L13.7839 9.14845C14.4601 10.3189 16.2745 9.26186 15.6039 8.08866Z" fill="white"/>
<path d="M9.1484 13.7908L5.2718 11.5508C4.0986 10.8732 3.0402 12.6876 4.212 13.3708L8.0886 15.6108C9.2618 16.2884 10.3202 14.474 9.1484 13.7908Z" fill="white"/>
<path d="M6.39469 21.95H1.91469C0.563691 21.95 0.560891 24.05 1.91469 24.05H6.39469C7.74569 24.05 7.74849 21.95 6.39469 21.95Z" fill="white"/>
<path d="M8.08859 30.3962L4.21199 32.6362C3.04159 33.3124 4.09859 35.1268 5.27179 34.4562L9.14839 32.2162C10.3188 31.54 9.26179 29.7256 8.08859 30.3962Z" fill="white"/>
<path d="M13.7908 36.8517L11.5508 40.7283C10.8732 41.9015 12.6876 42.9598 13.3708 41.788L15.6108 37.9115C16.2884 36.7383 14.474 35.6799 13.7908 36.8517Z" fill="white"/>
<path d="M21.9501 39.6054V44.0854C21.9501 45.4364 24.0501 45.4392 24.0501 44.0854V39.6054C24.0501 38.2544 21.9501 38.2516 21.9501 39.6054Z" fill="white"/>
<path d="M30.3963 37.9114L32.6363 41.788C33.3125 42.9584 35.1269 41.9014 34.4563 40.7282L32.2163 36.8516C31.5401 35.6812 29.7257 36.7382 30.3963 37.9114Z" fill="white"/>
<path d="M36.8517 32.2092L40.7283 34.4492C41.9015 35.1268 42.9599 33.3124 41.7881 32.6292L37.9115 30.3892C36.7383 29.7116 35.6799 31.526 36.8517 32.2092Z" fill="white"/>
<path d="M39.6055 24.05H44.0855C45.4365 24.05 45.4393 21.95 44.0855 21.95H39.6055C38.2545 21.95 38.2517 24.05 39.6055 24.05Z" fill="white"/>
<path d="M37.9114 15.6038L41.788 13.3638C42.9584 12.6876 41.9014 10.8732 40.7282 11.5438L36.8516 13.7838C35.6812 14.46 36.7382 16.2744 37.9114 15.6038Z" fill="white"/>
<path d="M32.2092 9.1484L34.4492 5.2718C35.1268 4.0986 33.3124 3.0402 32.6292 4.212L30.3892 8.0886C29.7116 9.2618 31.526 10.3202 32.2092 9.1484Z" fill="white"/>
</svg>
